# xmcd CD database file
#
# Track frame offsets:
#	150
#	31444
#	53359
#	74981
#	95832
#	116960
#	135212
#	161120
#	183348
#	205854
#	229516
#	246510
#	264842
#	285765
#
# Disc length: 4248 seconds
#
# Revision: 3
# Processed by: cddbd v1.5.2PL0 Copyright (c) Steve Scherf et al.
# Submitted via: CDex 1.70beta2
#
DISCID=c610960e
DTITLE=Alberto Barros - Tributo a la Salsa Colombiana 2
DYEAR=2009
DGENRE=Salsa
TTITLE0=01- Medley Salsa Colombiana 2
TTITLE1=02- Sin Sentimiento
TTITLE2=03- La Cita
TTITLE3=04- Cali AJI
TTITLE4=05- Gracias Amor
TTITLE5=06- Las Calenas son como las Flores
TTITLE6=07- Gotas de LLuvia 
TTITLE7=08- Invierno en Primavera
TTITLE8=09- Sin Mentiras
TTITLE9=10- En Barranquilla Me quedo
TTITLE10=11- Como Duele
TTITLE11=12- De Punta a Punta
TTITLE12=13- Descarga colombiana
TTITLE13=14- Medley Salsa Internacional 
EXTD=YEAR: 2009
EXTT0=
EXTT1=
EXTT2=
EXTT3=
EXTT4=
EXTT5=
EXTT6=
EXTT7=
EXTT8=
EXTT9=
EXTT10=
EXTT11=
EXTT12=
EXTT13=
PLAYORDER=
